{
  "asset": {
    "generator": "Khronos glTF Blender I/O v3.4.50",
    "version": "2.0"
  },
  "scene": 0,
  "scenes": [
    {
      "name": "Scene",
      "nodes": [
        0,
        1
      ]
    }
  ],
  "nodes": [
    {
      "mesh": 0,
      "name": "Torus.004"
    },
    {
      "mesh": 1,
      "name": "Torus.001"
    }
  ],
  "materials": [
    {
      "doubleSided": true,
      "name": "Material",
      "pbrMetallicRoughness": {
        "baseColorFactor": [
          0.8000000715255737,
          0.31161466240882874,
          0.1274746209383011,
          1
        ],
        "metallicFactor": 0,
        "roughnessFactor": 0.5
      }
    },
    {
      "doubleSided": true,
      "name": "Material.001",
      "pbrMetallicRoughness": {
        "baseColorFactor": [
          0.02021528035402298,
          0.5306695699691772,
          0.8000000715255737,
          1
        ],
        "metallicFactor": 0,
        "roughnessFactor": 0.5
      }
    }
  ],
  "meshes": [
    {
      "name": "Torus.004",
      "primitives": [
        {
          "attributes": {
            "POSITION": 0,
            "TEXCOORD_0": 1,
            "NORMAL": 2
          },
          "indices": 3,
          "material": 0
        }
      ]
    },
    {
      "name": "Torus.005",
      "primitives": [
        {
          "attributes": {
            "POSITION": 4,
            "TEXCOORD_0": 5,
            "NORMAL": 6
          },
          "indices": 7,
          "material": 1
        }
      ]
    }
  ],
  "accessors": [
    {
      "bufferView": 0,
      "componentType": 5126,
      "count": 1120,
      "max": [
        1.5499999523162842,
        0.5167691707611084,
        1.5495983362197876
      ],
      "min": [
        -1.5483936071395874,
        -0.5072061419487,
        -1.5495983362197876
      ],
      "type": "VEC3"
    },
    {
      "bufferView": 1,
      "componentType": 5126,
      "count": 1120,
      "type": "VEC2"
    },
    {
      "bufferView": 2,
      "componentType": 5126,
      "count": 1120,
      "type": "VEC3"
    },
    {
      "bufferView": 3,
      "componentType": 5123,
      "count": 6210,
      "type": "SCALAR"
    },
    {
      "bufferView": 4,
      "componentType": 5126,
      "count": 559,
      "max": [
        1.5499999523162842,
        0.5756697058677673,
        1.5495983362197876
      ],
      "min": [
        -1.5483936071395874,
        -0.06448429822921753,
        -1.5495983362197876
      ],
      "type": "VEC3"
    },
    {
      "bufferView": 5,
      "componentType": 5126,
      "count": 559,
      "type": "VEC2"
    },
    {
      "bufferView": 6,
      "componentType": 5126,
      "count": 559,
      "type": "VEC3"
    },
    {
      "bufferView": 7,
      "componentType": 5123,
      "count": 2892,
      "type": "SCALAR"
    }
  ],
  "bufferViews": [
    {
      "buffer": 0,
      "byteLength": 13440,
      "byteOffset": 0,
      "target": 34962
    },
    {
      "buffer": 0,
      "byteLength": 8960,
      "byteOffset": 13440,
      "target": 34962
    },
    {
      "buffer": 0,
      "byteLength": 13440,
      "byteOffset": 22400,
      "target": 34962
    },
    {
      "buffer": 0,
      "byteLength": 12420,
      "byteOffset": 35840,
      "target": 34963
    },
    {
      "buffer": 0,
      "byteLength": 6708,
      "byteOffset": 48260,
      "target": 34962
    },
    {
      "buffer": 0,
      "byteLength": 4472,
      "byteOffset": 54968,
      "target": 34962
    },
    {
      "buffer": 0,
      "byteLength": 6708,
      "byteOffset": 59440,
      "target": 34962
    },
    {
      "buffer": 0,
      "byteLength": 5784,
      "byteOffset": 66148,
      "target": 34963
    }
  ],
  "buffers": [
    {
      "uri": "donut_data.bin",
      "byteLength": 71932
    }
  ]
}