{
    "asset" : {
        "generator" : "Khronos glTF Blender I/O v1.4.40",
        "version" : "2.0"
    },
    "scene" : 0,
    "scenes" : [
        {
            "name" : "Scene",
            "nodes" : [
                0,
                1,
                2,
                3
            ]
        }
    ],
    "nodes" : [
        {
            "name" : "Light",
            "rotation" : [
                0.16907575726509094,
                0.7558803558349609,
                -0.27217137813568115,
                0.570947527885437
            ],
            "translation" : [
                7.096106052398682,
                10.32611083984375,
                -14.471697807312012
            ]
        },
        {
            "name" : "Camera",
            "rotation" : [
                0.483536034822464,
                0.33687159419059753,
                -0.20870360732078552,
                0.7804827094078064
            ],
            "translation" : [
                37.672401428222656,
                6.668991565704346,
                13.591249465942383
            ]
        },
        {
            "mesh" : 0,
            "name" : "Circle",
            "rotation" : [
                0.6749340891838074,
                -0.21086485683918,
                -0.2108648419380188,
                0.6749340891838074
            ],
            "scale" : [
                26.286556243896484,
                1,
                27.63931655883789
            ],
            "translation" : [
                0.8494483232498169,
                21.278209686279297,
                -7.438712120056152
            ]
        },
        {
            "mesh" : 1,
            "name" : "Text",
            "rotation" : [
                0.7060384154319763,
                0.03885564208030701,
                0.03885564208030701,
                0.7060384154319763
            ],
            "scale" : [
                19.047618865966797,
                1,
                42.857139587402344
            ],
            "translation" : [
                6.057013511657715,
                29.909805297851562,
                -6.331920146942139
            ]
        }
    ],
    "materials" : [
        {
            "doubleSided" : true,
            "name" : "Material.001",
            "pbrMetallicRoughness" : {
                "baseColorFactor" : [
                    0.8000000715255737,
                    0.5948023200035095,
                    0.015837308019399643,
                    1
                ],
                "metallicFactor" : 0,
                "roughnessFactor" : 0.5
            }
        }
    ],
    "meshes" : [
        {
            "name" : "Circle.003",
            "primitives" : [
                {
                    "attributes" : {
                        "POSITION" : 0,
                        "NORMAL" : 1,
                        "TEXCOORD_0" : 2
                    },
                    "indices" : 3,
                    "material" : 0
                }
            ]
        },
        {
            "name" : "Text",
            "primitives" : [
                {
                    "attributes" : {
                        "POSITION" : 4,
                        "NORMAL" : 5,
                        "TEXCOORD_0" : 6
                    },
                    "indices" : 7,
                    "material" : 0
                }
            ]
        }
    ],
    "accessors" : [
        {
            "bufferView" : 0,
            "componentType" : 5126,
            "count" : 60,
            "max" : [
                0.9510564804077148,
                14.315412521362305,
                1
            ],
            "min" : [
                -0.9510564804077148,
                0,
                -0.8090172410011292
            ],
            "type" : "VEC3"
        },
        {
            "bufferView" : 1,
            "componentType" : 5126,
            "count" : 60,
            "type" : "VEC3"
        },
        {
            "bufferView" : 2,
            "componentType" : 5126,
            "count" : 60,
            "type" : "VEC2"
        },
        {
            "bufferView" : 3,
            "componentType" : 5123,
            "count" : 108,
            "type" : "SCALAR"
        },
        {
            "bufferView" : 4,
            "componentType" : 5126,
            "count" : 2677,
            "max" : [
                1.6150000095367432,
                1.0099999904632568,
                0.009000000543892384
            ],
            "min" : [
                0.04000000283122063,
                -1.0099999904632568,
                -0.6910000443458557
            ],
            "type" : "VEC3"
        },
        {
            "bufferView" : 5,
            "componentType" : 5126,
            "count" : 2677,
            "type" : "VEC3"
        },
        {
            "bufferView" : 6,
            "componentType" : 5126,
            "count" : 2677,
            "type" : "VEC2"
        },
        {
            "bufferView" : 7,
            "componentType" : 5123,
            "count" : 4872,
            "type" : "SCALAR"
        }
    ],
    "bufferViews" : [
        {
            "buffer" : 0,
            "byteLength" : 720,
            "byteOffset" : 0
        },
        {
            "buffer" : 0,
            "byteLength" : 720,
            "byteOffset" : 720
        },
        {
            "buffer" : 0,
            "byteLength" : 480,
            "byteOffset" : 1440
        },
        {
            "buffer" : 0,
            "byteLength" : 216,
            "byteOffset" : 1920
        },
        {
            "buffer" : 0,
            "byteLength" : 32124,
            "byteOffset" : 2136
        },
        {
            "buffer" : 0,
            "byteLength" : 32124,
            "byteOffset" : 34260
        },
        {
            "buffer" : 0,
            "byteLength" : 21416,
            "byteOffset" : 66384
        },
        {
            "buffer" : 0,
            "byteLength" : 9744,
            "byteOffset" : 87800
        }
    ],
    "buffers" : [
        {
            "byteLength" : 97544,
            "uri" : "data:application/octet-stream;base64,"
        }
    ]
}
